<svg width="60" height="52" viewBox="0 0 60 52" fill="none" xmlns="http://www.w3.org/2000/svg">
<path d="M60 13V46.4286C60 49.5045 57.4805 52 54.375 52H5.625C2.51953 52 0 49.5045 0 46.4286V13C0 9.92411 2.51953 7.42857 5.625 7.42857H15.9375L17.3789 3.60982C18.1992 1.43929 20.2969 0 22.6406 0H37.3477C39.6914 0 41.7891 1.43929 42.6094 3.60982L44.0625 7.42857H54.375C57.4805 7.42857 60 9.92411 60 13ZM44.0625 29.7143C44.0625 22.0304 37.7578 15.7857 30 15.7857C22.2422 15.7857 15.9375 22.0304 15.9375 29.7143C15.9375 37.3982 22.2422 43.6429 30 43.6429C37.7578 43.6429 44.0625 37.3982 44.0625 29.7143ZM40.3125 29.7143C40.3125 35.3438 35.6836 39.9286 30 39.9286C24.3164 39.9286 19.6875 35.3438 19.6875 29.7143C19.6875 24.0848 24.3164 19.5 30 19.5C35.6836 19.5 40.3125 24.0848 40.3125 29.7143Z" fill="#7C7C7C"/>
</svg>
