<svg width="62" height="62" viewBox="0 0 62 62" fill="none" xmlns="http://www.w3.org/2000/svg">
<path d="M0 54.5172V47.0345H14.9655V62H0V54.5172ZM12.8276 54.5172V49.1724H2.13793V59.8621H12.8276V54.5172ZM4.27586 54.5172V51.3103H10.6897V57.7241H4.27586V54.5172ZM19.2414 60.931V59.8621H17.1034V55.5862H19.2414V49.1724H21.3793V47.0345H17.1034V44.8966H8.55172V42.7586H10.6897V40.6207H6.41379V44.8966H4.27586V42.7586H0V40.6207H4.27586V36.3448H2.13793V38.4828H0V34.2069H4.27586V36.3448H6.41379V38.4828H8.55172V36.3448H10.6897V38.4828H14.9655V36.3448H12.8276V34.2069H6.41379V32.069H12.8276V29.931H6.41379V27.7931H4.27586V29.931H0V23.5172H2.13793V25.6552H14.9655V23.5172H12.8276V21.3793H8.55172V23.5172H6.41379V21.3793H2.13793V17.1034H6.41379V21.3793H8.55172V19.2414H12.8276V17.1034H14.9655V19.2414H12.8276V21.3793H14.9655V23.5172H17.1034V19.2414H19.2414V17.1034H17.1034V10.6897H21.3793V12.8276H23.5172V14.9655H21.3793V17.1034H23.5172V29.931H19.2414V27.7931H17.1034V29.931H14.9655V32.069H12.8276V34.2069H14.9655V36.3448H17.1034V38.4828H21.3793V36.3448H19.2414V34.2069H17.1034V32.069H21.3793V36.3448H23.5172V32.069H25.6552V36.3448H27.7931V29.931H29.931V27.7931H32.069V29.931H29.931V32.069H32.069V34.2069H38.4828V32.069H36.3448V29.931H34.2069V25.6552H32.069V23.5172H34.2069V21.3793H36.3448V19.2414H34.2069V17.1034H32.069V21.3793H29.931V19.2414H27.7931V21.3793H25.6552V19.2414H27.7931V17.1034H25.6552V10.6897H23.5172V8.55172H25.6552V10.6897H27.7931V2.13793H29.931V6.41379H34.2069V4.27586H32.069V0H36.3448V2.13793H34.2069V4.27586H38.4828V2.13793H40.6207V0H44.8966V6.41379H40.6207V4.27586H38.4828V8.55172H40.6207V14.9655H42.7586V12.8276H44.8966V23.5172H49.1724V21.3793H47.0345V17.1034H51.3103V23.5172H55.5862V21.3793H53.4483V17.1034H55.5862V21.3793H57.7241V19.2414H62V23.5172H59.8621V21.3793H57.7241V23.5172H55.5862V29.931H57.7241V32.069H55.5862V34.2069H51.3103V36.3448H49.1724V38.4828H44.8966V36.3448H42.7586V34.2069H40.6207V38.4828H42.7586V40.6207H49.1724V42.7586H53.4483V40.6207H51.3103V38.4828H53.4483V36.3448H55.5862V38.4828H57.7241V40.6207H59.8621V36.3448H57.7241V34.2069H62V40.6207H59.8621V44.8966H62V49.1724H59.8621V55.5862H62V57.7241H55.5862V62H49.1724V59.8621H53.4483V57.7241H49.1724V53.4483H47.0345V57.7241H44.8966V59.8621H47.0345V62H42.7586V55.5862H40.6207V59.8621H38.4828V57.7241H36.3448V49.1724H38.4828V55.5862H40.6207V49.1724H42.7586V44.8966H40.6207V42.7586H38.4828V40.6207H40.6207V38.4828H38.4828V36.3448H36.3448V44.8966H38.4828V47.0345H34.2069V51.3103H32.069V55.5862H34.2069V57.7241H32.069V59.8621H36.3448V62H32.069V59.8621H29.931V57.7241H27.7931V62H19.2414V60.931ZM25.6552 57.7241V55.5862H27.7931V49.1724H23.5172V51.3103H25.6552V53.4483H21.3793V55.5862H19.2414V57.7241H21.3793V59.8621H25.6552V57.7241ZM55.5862 55.5862V53.4483H57.7241V49.1724H59.8621V47.0345H57.7241V40.6207H55.5862V47.0345H57.7241V49.1724H55.5862V51.3103H53.4483V57.7241H55.5862V55.5862ZM44.8966 54.5172V53.4483H42.7586V55.5862H44.8966V54.5172ZM32.069 50.2414V49.1724H29.931V51.3103H32.069V50.2414ZM51.3103 48.1035V44.8966H44.8966V51.3103H51.3103V48.1035ZM47.0345 48.1035V47.0345H49.1724V49.1724H47.0345V48.1035ZM29.931 45.9655V44.8966H34.2069V42.7586H29.931V40.6207H27.7931V42.7586H29.931V44.8966H25.6552V42.7586H23.5172V44.8966H21.3793V42.7586H19.2414V40.6207H17.1034V38.4828H14.9655V40.6207H12.8276V42.7586H14.9655V40.6207H17.1034V42.7586H19.2414V44.8966H21.3793V47.0345H29.931V45.9655ZM23.5172 39.5517V38.4828H21.3793V40.6207H23.5172V39.5517ZM34.2069 38.4828V36.3448H29.931V38.4828H32.069V40.6207H34.2069V38.4828ZM47.0345 35.2759V34.2069H44.8966V36.3448H47.0345V35.2759ZM51.3103 33.1379V32.069H53.4483V25.6552H51.3103V27.7931H49.1724V29.931H47.0345V27.7931H42.7586V25.6552H40.6207V23.5172H42.7586V17.1034H40.6207V14.9655H38.4828V12.8276H36.3448V14.9655H34.2069V8.55172H36.3448V10.6897H38.4828V8.55172H36.3448V6.41379H34.2069V8.55172H32.069V14.9655H34.2069V17.1034H36.3448V14.9655H38.4828V21.3793H36.3448V23.5172H34.2069V25.6552H36.3448V29.931H38.4828V27.7931H42.7586V29.931H44.8966V32.069H49.1724V34.2069H51.3103V33.1379ZM49.1724 31V29.931H51.3103V32.069H49.1724V31ZM14.9655 28.8621V27.7931H17.1034V25.6552H14.9655V27.7931H12.8276V29.931H14.9655V28.8621ZM21.3793 24.5862V23.5172H19.2414V25.6552H21.3793V24.5862ZM21.3793 13.8966V12.8276H19.2414V14.9655H21.3793V13.8966ZM29.931 12.8276V10.6897H27.7931V14.9655H29.931V12.8276ZM42.7586 3.2069V2.13793H40.6207V4.27586H42.7586V3.2069ZM59.8621 60.931V59.8621H62V62H59.8621V60.931ZM59.8621 29.931V27.7931H57.7241V25.6552H59.8621V27.7931H62V32.069H59.8621V29.931ZM0 7.48276V0H14.9655V14.9655H0V7.48276ZM12.8276 7.48276V2.13793H2.13793V12.8276H12.8276V7.48276ZM4.27586 7.48276V4.27586H10.6897V10.6897H4.27586V7.48276ZM47.0345 7.48276V0H62V14.9655H47.0345V7.48276ZM59.8621 7.48276V2.13793H49.1724V12.8276H59.8621V7.48276ZM51.3103 7.48276V4.27586H57.7241V10.6897H51.3103V7.48276ZM17.1034 7.48276V6.41379H19.2414V8.55172H17.1034V7.48276ZM21.3793 5.34483V4.27586H19.2414V0H21.3793V2.13793H23.5172V0H25.6552V2.13793H23.5172V6.41379H21.3793V5.34483Z" fill="white"/>
</svg>
