<svg width="44" height="42" viewBox="0 0 44 42" fill="none" xmlns="http://www.w3.org/2000/svg">
<g clip-path="url(#clip0_36_180)">
<path d="M17.4166 11.375V16.625H11.9166V11.375H17.4166ZM20.1666 8.75H9.16663V19.25H20.1666V8.75ZM17.4166 25.375V30.625H11.9166V25.375H17.4166ZM20.1666 22.75H9.16663V33.25H20.1666V22.75ZM32.0833 11.375V16.625H26.5833V11.375H32.0833ZM34.8333 8.75H23.8333V19.25H34.8333V8.75ZM23.8333 22.75H26.5833V25.375H23.8333V22.75ZM26.5833 25.375H29.3333V28H26.5833V25.375ZM29.3333 22.75H32.0833V25.375H29.3333V22.75ZM23.8333 28H26.5833V30.625H23.8333V28ZM26.5833 30.625H29.3333V33.25H26.5833V30.625ZM29.3333 28H32.0833V30.625H29.3333V28ZM32.0833 25.375H34.8333V28H32.0833V25.375ZM32.0833 30.625H34.8333V33.25H32.0833V30.625ZM40.3333 12.25H36.6666V7H31.1666V3.5H40.3333V12.25ZM40.3333 38.5V29.75H36.6666V35H31.1666V38.5H40.3333ZM3.66663 38.5H12.8333V35H7.33329V29.75H3.66663V38.5ZM3.66663 3.5V12.25H7.33329V7H12.8333V3.5H3.66663Z" fill="#E3E3E3"/>
</g>
<defs>
<clipPath id="clip0_36_180">
<rect width="44" height="42" fill="white"/>
</clipPath>
</defs>
</svg>
